<svg id="Layer_1" enable-background="new 0 0 511.939 511.939" height="512" viewBox="0 0 511.939 511.939" width="512" xmlns="http://www.w3.org/2000/svg"><g><path d="m409.48 63.586c-41.004-41.004-95.522-63.586-153.511-63.586-57.988 0-112.506 22.582-153.51 63.586s-63.586 95.521-63.586 153.51c0 34.415 11.313 71.246 33.623 109.468 17.38 29.775 41.499 60.563 71.688 91.508 50.988 52.266 101.228 86.679 103.342 88.118l8.443 5.749 8.443-5.749c2.113-1.439 52.354-35.853 103.342-88.118 30.189-30.945 54.309-61.733 71.688-91.508 22.311-38.223 33.623-75.053 33.623-109.468.001-57.989-22.581-112.507-63.585-153.51z" fill="#ff5b5b"/><path d="m409.48 63.586c-41.004-41.004-95.522-63.586-153.511-63.586-.013 0-.025 0-.038 0v511.913l.038.026 8.443-5.749c2.113-1.439 52.354-35.853 103.342-88.118 30.189-30.945 54.309-61.733 71.688-91.508 22.311-38.223 33.623-75.053 33.623-109.468.001-57.989-22.581-112.507-63.585-153.51z" fill="#e50058"/><circle cx="255.931" cy="215.095" fill="#fff5f5" r="144.69"/><path d="m255.931 70.405v289.38c79.91 0 144.69-64.78 144.69-144.69s-64.779-144.69-144.69-144.69z" fill="#e1ebf0"/><path d="m255.931 374.785c-88.053 0-159.69-71.637-159.69-159.69s71.637-159.69 159.69-159.69 159.69 71.637 159.69 159.69-71.636 159.69-159.69 159.69zm0-289.38c-71.511 0-129.69 58.179-129.69 129.69s58.179 129.69 129.69 129.69 129.69-58.179 129.69-129.69-58.178-129.69-129.69-129.69z" fill="#e1ebf0"/><path d="m255.931 55.405v30c71.511 0 129.69 58.179 129.69 129.69s-58.179 129.69-129.69 129.69v30c88.053 0 159.69-71.637 159.69-159.69s-71.636-159.69-159.69-159.69z" fill="#b4d2d7"/><g><path d="m300.983 191.508h-30v-26.542c0-8.272-6.729-15.002-15.002-15.002-8.272 0-15.002 6.73-15.002 15.002v26.542h-30v-26.542c0-24.814 20.188-45.002 45.002-45.002s45.002 20.188 45.002 45.002z" fill="#607882"/></g><path d="m255.981 119.964c-.017 0-.033.001-.049.001v30.001c.017 0 .033-.002.049-.002 8.272 0 15.002 6.73 15.002 15.002v26.542h30v-26.542c0-24.814-20.188-45.002-45.002-45.002z" fill="#495959"/><path d="m178.761 191.508 11.909 93.601h130.524l11.908-93.601z" fill="#00cc76"/><path d="m333.102 191.508h-77.171v93.601h65.263z" fill="#009986"/><g><path d="m163.88 176.508h184.103v30h-184.103z" fill="#a5e887"/></g><path d="m255.931 176.508h92.051v30h-92.051z" fill="#00cc76"/></g></svg>