<?xml version="1.0" encoding="iso-8859-1"?>
<!-- Generator: Adobe Illustrator 19.0.0, SVG Export Plug-In . SVG Version: 6.00 Build 0)  -->
<svg version="1.1" id="Capa_1" xmlns="http://www.w3.org/2000/svg" xmlns:xlink="http://www.w3.org/1999/xlink" x="0px" y="0px"
	 viewBox="0 0 496 496" style="enable-background:new 0 0 496 496;" xml:space="preserve">
<path style="fill:#F5F8FC;" d="M496,369.6c0,27.2-21.6,48.8-48,48.8H48c-26.4,0-48-21.6-48-48.8V126.4c0-27.2,21.6-48.8,48-48.8h400
	c26.4,0,48,21.6,48,48.8V369.6z"/>
<path style="fill:#E2ECF7;" d="M48,77.6h400c26.4,0,48,21.6,48,48.8v243.2c0,27.2-21.6,48.8-48,48.8"/>
<g>
	<path style="fill:#D4E5F4;" d="M48,77.6h400c26.4,0,48,21.6,48,48.8v88.8"/>
	<path style="fill:#D4E5F4;" d="M496,369.6c0,27.2-21.6,48.8-48,48.8H48c-26.4,0-48-21.6-48-48.8"/>
</g>
<path style="fill:#992811;" d="M325.6,216.8v82.4c0,0-0.8,8,11.2,8c11.2,0,11.2-9.6,11.2-9.6v-80c0,0-1.6-8-11.2-8
	C325.6,209.6,325.6,216.8,325.6,216.8z M339.2,220.8V296c0,0-0.8,3.2-3.2,3.2s-2.4-3.2-2.4-3.2v-74.4c0,0,0.8-3.2,3.2-3.2
	C339.2,218.4,339.2,220.8,339.2,220.8z"/>
<path style="fill:#BF3F21;" d="M312,239.2v-22.4c0,0-1.6-7.2-11.2-7.2s-11.2,8-11.2,8v80.8c0,0,0.8,8.8,9.6,8.8
	c10.4,0,12-8.8,12-8.8v-24h-8V296c0,0,0,3.2-3.2,3.2s-2.4-3.2-2.4-3.2v-75.2c0,0,0-3.2,2.4-3.2s3.2,2.4,3.2,2.4v19.2H312z"/>
<g>
	<path style="fill:#992811;" d="M301.6,209.6c-9.6,0-11.2,8-11.2,8V284l7.2,6.4v-69.6c0,0,0-3.2,2.4-3.2s3.2,2.4,3.2,2.4v19.2h8.8
		v-22.4C312,216.8,310.4,209.6,301.6,209.6z"/>
	<path style="fill:#992811;" d="M303.2,273.6v20.8l7.2,6.4c0.8-1.6,0.8-3.2,0.8-3.2v-24L303.2,273.6L303.2,273.6z"/>
</g>
<path style="fill:#BF3F21;" d="M276.8,240v-22.4c0,0-0.8-7.2-10.4-7.2s-11.2,7.2-11.2,7.2v23.2c0,0,3.2,12,6.4,19.2
	c3.2,7.2,6.4,16.8,6.4,16.8v20.8c0,0,0.8,2.4-2.4,2.4s-2.4-2.4-2.4-2.4v-22.4h-8v26.4c0,0,1.6,7.2,10.4,7.2s11.2-8,11.2-8V276
	c0,0-4-12.8-7.2-20.8S264,240,264,240v-19.2c0,0,0.8-1.6,2.4-1.6s2.4,2.4,2.4,2.4V240H276.8z"/>
<path style="fill:#992811;" d="M266.4,209.6c-9.6,0-11.2,7.2-11.2,7.2V240c0,0,3.2,11.2,5.6,18.4l12.8,11.2
	c-1.6-4.8-4-10.4-5.6-15.2c-3.2-8-5.6-15.2-5.6-15.2V220c0,0,0.8-1.6,2.4-1.6s2.4,2.4,2.4,2.4V240h8v-22.4
	C276.8,216.8,275.2,209.6,266.4,209.6z"/>
<polygon style="fill:#BF3F21;" points="240.8,217.6 240.8,209.6 219.2,209.6 219.2,307.2 239.2,307.2 239.2,298.4 227.2,298.4 
	227.2,262.4 236,262.4 236,253.6 228,253.6 228,217.6 "/>
<polygon style="fill:#992811;" points="219.2,223.2 228,230.4 228,217.6 240.8,217.6 240.8,209.6 219.2,209.6 "/>
<g>
	<polygon style="fill:#BF3F21;" points="190.4,209.6 183.2,209.6 183.2,307.2 189.6,307.2 189.6,272.8 197.6,307.2 204,307.2 
		204,209.6 196.8,209.6 196.8,241.6 	"/>
	<path style="fill:#BF3F21;" d="M158.4,307.2c11.2,0,11.2-8.8,11.2-8.8v-88h-8.8V296c0,0,0,2.4-2.4,2.4S156,296,156,296v-86.4h-8.8
		v88C148,297.6,147.2,307.2,158.4,307.2z"/>
	<polygon style="fill:#BF3F21;" points="248.8,152.8 340.8,187.2 355.2,187.2 355.2,180.8 248.8,140 140.8,180.8 140.8,187.2 
		154.4,187.2 	"/>
</g>
<g>
	<polygon style="fill:#992811;" points="160,173.6 169.6,181.6 248.8,152.8 340.8,187.2 355.2,187.2 355.2,180.8 248.8,140 	"/>
	<polygon style="fill:#992811;" points="305.6,187.2 329.6,187.2 248.8,157.6 165.6,187.2 188.8,187.2 248.8,168 	"/>
</g>
<rect x="140.8" y="192.8" style="fill:#BF3F21;" width="214.4" height="12"/>
<polygon style="fill:#992811;" points="196.8,204 355.2,204 355.2,192 182.4,192.8 "/>
<g>
	<polygon style="fill:#BF3F21;" points="355.2,312 140.8,312 140.8,322.4 355.2,322.4 	"/>
	<rect x="129.6" y="328.8" style="fill:#BF3F21;" width="236.8" height="10.4"/>
	<rect x="118.4" y="346.4" style="fill:#BF3F21;" width="259.2" height="9.6"/>
</g>
<g>
</g>
<g>
</g>
<g>
</g>
<g>
</g>
<g>
</g>
<g>
</g>
<g>
</g>
<g>
</g>
<g>
</g>
<g>
</g>
<g>
</g>
<g>
</g>
<g>
</g>
<g>
</g>
<g>
</g>
</svg>
